# xmcd
#
# Track frame offsets:
# 150
# 28178
# 52595
# 78983
# 100377
# 124608
# 148455
# 166489
# 184817
# 210815
# 228490
# 250630
# 274422
# 292552
# 308801
#
# Disc length: 4455 seconds
#
# Revision: 0
# Processed by: cddbd v1.5.2PL0 Copyright (c) Steve Scherf et al.
# Submitted via: Audion 3.0.2 (http://www.panic.com/audion/)
#
DISCID=c911650f
DTITLE=transitions - transitions
DYEAR=1900
DGENRE=
TTITLE0=transitions
TTITLE1=transitions
TTITLE2=transitions
TTITLE3=transitions
TTITLE4=transitions
TTITLE5=transitions
TTITLE6=transitions
TTITLE7=transitions
TTITLE8=transitions
TTITLE9=transitions
TTITLE10=transitions
TTITLE11=transitions
TTITLE12=transitions
TTITLE13=transitions
TTITLE14=transitions
EXTD=
EXTT0=
EXTT1=
EXTT2=
EXTT3=
EXTT4=
EXTT5=
EXTT6=
EXTT7=
EXTT8=
EXTT9=
EXTT10=
EXTT11=
EXTT12=
EXTT13=
EXTT14=
PLAYORDER=
